# xmcd CD database file
#
# Track frame offsets:
#	150
#	17347
#	34898
#
# Disc length: 657 seconds
#
# Revision: 2
# Processed by: cddbd v1.5.1PL0 Copyright (c) Steve Scherf et al.
# Submitted via: CDex 1.51
#
DISCID=17028f03
DTITLE=ORANGE RANGE - お願い！セニョリータ
DYEAR=2005
DGENRE=JPop
TTITLE0=お願い!セニョリータ
TTITLE1=ねったいナイト
TTITLE2=はい!もしもし…夏です!
EXTD=YEAR: 2005
EXTT0=
EXTT1=
EXTT2=
PLAYORDER=
